<?xml version="1.0" standalone="no"?><!DOCTYPE svg PUBLIC "-//W3C//DTD SVG 1.1//EN" "http://www.w3.org/Graphics/SVG/1.1/DTD/svg11.dtd"><svg t="1627006624167" class="icon" viewBox="0 0 1024 1024" version="1.1" xmlns="http://www.w3.org/2000/svg" p-id="1882" xmlns:xlink="http://www.w3.org/1999/xlink" width="200" height="200"><defs><style type="text/css">@font-face { font-family: feedback-iconfont; src: url("//at.alicdn.com/t/font_1031158_1uhr8ri0pk5.eot?#iefix") format("embedded-opentype"), url("//at.alicdn.com/t/font_1031158_1uhr8ri0pk5.woff2") format("woff2"), url("//at.alicdn.com/t/font_1031158_1uhr8ri0pk5.woff") format("woff"), url("//at.alicdn.com/t/font_1031158_1uhr8ri0pk5.ttf") format("truetype"), url("//at.alicdn.com/t/font_1031158_1uhr8ri0pk5.svg#iconfont") format("svg"); }
</style></defs><path d="M984.252114 783.151422h-10.232129V78.708686H984.252114a39.354343 39.354343 0 0 0 0-78.708686H39.747886a39.354343 39.354343 0 0 0 0 78.708686h10.232129v704.442736H39.747886a39.354343 39.354343 0 0 0 0 78.708686h432.897771V944.504228H374.2598a39.354343 39.354343 0 1 0 0 78.708685h275.4804a39.354343 39.354343 0 0 0 0-78.708685H551.354343v-82.64412h432.897771a39.354343 39.354343 0 0 0 0-78.708686z m-558.438125-334.905457l-161.352805 161.352805-55.883167-55.489623 217.235972-217.235973L560.799385 472.252114l236.126057-238.487318 55.883167 55.883167-293.976941 293.976941z" p-id="1883"></path></svg>